HIERARCHY
ROOT Hips
{
	OFFSET 71.494926 92.105927 17.642220
	CHANNELS 6 Xposition Yposition Zposition Zrotation Yrotation Xrotation 
	JOINT LeftUpLeg
	{
		OFFSET 0.103459 1.857829 10.548508
		CHANNELS 3 Xrotation Yrotation Zrotation
		JOINT LeftLeg
		{
			OFFSET 43.500000 -0.000031 -0.000004
			CHANNELS 3 Xrotation Yrotation Zrotation
			JOINT LeftFoot
			{
				OFFSET 42.372200 0.000019 0.000005
				CHANNELS 3 Xrotation Yrotation Zrotation
				JOINT LeftToe
				{
					OFFSET 17.299999 -0.000000 -0.000005
					CHANNELS 3 Xrotation Yrotation Zrotation
					End Site
					{
						OFFSET 0.000000 0.000000 0.000000
					}
				}
			}
		}
	}
	JOINT RightUpLeg
	{
		OFFSET 0.103458 1.857828 -10.548506
		CHANNELS 3 Xrotation Yrotation Zrotation
		JOINT RightLeg
		{
			OFFSET 43.500042 -0.000023 0.000011
			CHANNELS 3 Xrotation Yrotation Zrotation
			JOINT RightFoot
			{
				OFFSET 42.372261 -0.000008 0.000008
				CHANNELS 3 Xrotation Yrotation Zrotation
				JOINT RightToe
				{
					OFFSET 17.299994 -0.000005 0.000010
					CHANNELS 3 Xrotation Yrotation Zrotation
					End Site
					{
						OFFSET 0.000000 0.000000 0.000000
					}
				}
			}
		}
	}
	JOINT Spine
	{
		OFFSET 6.901963 -2.603731 0.000002
		CHANNELS 3 Xrotation Yrotation Zrotation
		JOINT Spine1
		{
			OFFSET 12.588100 0.000001 -0.000005
			CHANNELS 3 Xrotation Yrotation Zrotation
			JOINT Spine2
			{
				OFFSET 12.343208 0.000002 0.000006
				CHANNELS 3 Xrotation Yrotation Zrotation
				JOINT Neck
				{
					OFFSET 25.832893 -0.000004 -0.000005
					CHANNELS 3 Xrotation Yrotation Zrotation
					JOINT Head
					{
						OFFSET 11.766604 0.000010 0.000000
						CHANNELS 3 Xrotation Yrotation Zrotation
						End Site
						{
							OFFSET 0.000000 0.000000 0.000000
						}
					}
				}
				JOINT LeftShoulder
				{
					OFFSET 19.745903 -1.480368 6.000098
					CHANNELS 3 Xrotation Yrotation Zrotation
					JOINT LeftArm
					{
						OFFSET 11.284134 -0.000007 -0.000016
						CHANNELS 3 Xrotation Yrotation Zrotation
						JOINT LeftForeArm
						{
							OFFSET 33.000050 0.000005 0.000015
							CHANNELS 3 Xrotation Yrotation Zrotation
							JOINT LeftHand
							{
								OFFSET 25.200003 0.000014 0.000010
								CHANNELS 3 Xrotation Yrotation Zrotation
								End Site
								{
									OFFSET 0.000000 0.000000 0.000000
								}
							}
						}
					}
				}
				JOINT RightShoulder
				{
					OFFSET 19.746094 -1.480373 -6.000076
					CHANNELS 3 Xrotation Yrotation Zrotation
					JOINT RightArm
					{
						OFFSET 11.284140 -0.000016 -0.000005
						CHANNELS 3 Xrotation Yrotation Zrotation
						JOINT RightForeArm
						{
							OFFSET 33.000092 0.000015 0.000005
							CHANNELS 3 Xrotation Yrotation Zrotation
							JOINT RightHand
							{
								OFFSET 25.199781 0.000140 0.000422
								CHANNELS 3 Xrotation Yrotation Zrotation
								End Site
								{
									OFFSET 0.000000 0.000000 0.000000
								}
							}
						}
					}
				}
			}
		}
	}
}
MOTION
Frames: 5
Frame Time: 0.033333
81.154549 90.766373 -78.455940 94.138230 2.541818 136.720484 -179.909560 -14.024596 170.487969 -36.334503 -1.459579 -16.408549 70.287913 8.085271 -11.859208 21.454557 0.003109 0.000018 169.808557 6.976695 -161.523756 -26.517158 1.357422 7.612525 82.669181 -4.822837 2.506862 21.454550 -0.003100 -0.000002 9.445824 1.431122 -2.094626 8.828137 3.017736 -4.075304 8.510449 2.992958 -4.093432 4.798882 -10.875618 -9.202923 -20.098270 5.677468 -14.395698 111.158153 -76.425910 68.453249 -50.651290 46.860572 -52.918906 -96.564456 0.388864 2.613733 0.867686 -30.532124 9.095602 178.692324 75.993689 0.064265 -6.524730 -56.916615 -17.953557 -88.916810 1.794052 -2.382844 3.381539 21.310911 -5.576419 
81.177483 90.942421 -77.065987 94.342855 2.504068 136.458191 178.733237 -13.938003 171.465424 -38.670625 -1.550925 -18.415431 67.262371 9.613563 -10.976931 21.454560 0.003108 0.000015 170.805532 6.247101 -162.283027 -25.909983 1.464940 8.016046 83.280824 -5.159709 2.260557 21.454555 -0.003075 0.000002 9.426307 1.524332 -2.174665 8.783897 3.209207 -4.228925 8.466199 3.183500 -4.248204 4.652406 -10.034430 -9.062791 -20.017645 5.013015 -13.790516 115.119533 -76.556203 64.463708 -46.227373 51.684212 -47.165168 -94.851308 -0.104194 2.571346 0.609400 -30.456541 9.088974 -178.436998 75.418211 2.990423 -2.689411 -56.254271 -21.256787 -88.534449 1.832586 -2.368649 3.523001 21.090892 -5.490109 
81.224487 91.025978 -75.754997 94.483270 2.649869 135.958713 177.359235 -13.958502 172.370410 -41.247232 -1.872513 -20.537827 65.210172 11.766390 -8.901815 21.454557 0.003109 0.000017 171.726542 5.434198 -163.396416 -25.495711 1.703176 8.469472 83.927234 -5.537954 1.968977 21.454551 -0.003092 -0.000000 9.448513 1.626082 -2.198066 8.824426 3.414893 -4.267540 8.506687 3.388947 -4.288053 4.356307 -9.594242 -8.985992 -19.905067 4.677811 -13.483651 118.407804 -76.586508 61.155041 -41.262430 56.094045 -41.028397 -93.251903 -0.567383 2.532039 -0.198664 -31.057932 10.565597 -175.514620 75.305172 5.981785 -0.511793 -55.781660 -22.974347 -88.401991 1.863770 -2.364979 3.615364 20.568790 -5.399665 
81.291748 90.974007 -74.576073 94.448095 3.035294 135.438376 175.785819 -14.197997 173.025726 -44.290809 -1.862319 -21.678626 64.677623 13.465881 -6.369808 21.454558 0.003107 0.000016 172.510976 4.487897 -164.314940 -25.376279 1.915897 8.804250 84.631699 -5.829993 1.659602 21.454553 -0.003086 -0.000000 9.497877 1.761947 -2.215527 8.918324 3.689264 -4.290779 8.600498 3.663172 -4.312961 3.752400 -9.249541 -8.820610 -19.495990 4.285295 -13.084145 120.771214 -76.685368 58.767378 -35.697656 60.074219 -34.713627 -92.407719 -0.794022 2.510073 0.415505 -31.644208 9.753335 -173.174296 75.187802 8.378315 -0.194801 -55.189496 -22.854260 -88.364124 1.841640 -2.361767 4.088433 20.024653 -4.903156 
81.382004 90.893288 -73.509621 94.424394 3.413387 134.686495 174.292412 -14.365092 173.881617 -47.574573 -1.873526 -20.667273 66.189437 12.803498 -6.245796 21.454555 0.003110 0.000018 173.180157 3.656100 -165.305591 -25.373430 2.133849 9.028218 85.309336 -6.043976 1.330904 21.454550 -0.003092 0.000001 9.530685 1.837611 -2.170238 8.983187 3.838018 -4.193489 8.665250 3.812511 -4.216567 4.004615 -8.871799 -8.750491 -19.633281 3.933196 -12.775232 122.993976 -76.765773 56.521093 -29.170812 63.302596 -27.116100 -91.526598 -1.025241 2.486815 2.446965 -32.086818 7.985400 -171.553684 74.833964 10.036698 -1.075768 -54.432708 -21.410042 -88.263085 1.862074 -2.357000 4.863677 19.286467 -4.946697 
